<svg xmlns="http://www.w3.org/2000/svg" viewBox="0 0 512 512">
  <defs>
    <radialGradient id="bg" cx="50%" cy="40%" r="80%">
      <stop offset="0%" stop-color="#4a3aa8"/>
      <stop offset="55%" stop-color="#1f1a6a"/>
      <stop offset="100%" stop-color="#080826"/>
    </radialGradient>
    <radialGradient id="moon" cx="35%" cy="35%" r="70%">
      <stop offset="0%" stop-color="#fff5d6"/>
      <stop offset="60%" stop-color="#ffe6a8"/>
      <stop offset="100%" stop-color="#ffc880"/>
    </radialGradient>
  </defs>
  <rect width="512" height="512" fill="url(#bg)"/>
  <g fill="white" opacity="0.85">
    <circle cx="170" cy="170" r="3"/>
    <circle cx="350" cy="170" r="3"/>
    <circle cx="170" cy="350" r="3"/>
    <circle cx="350" cy="350" r="3"/>
  </g>
  <g fill="#ffe6a8" opacity="0.9">
    <path d="M 180 200 l 4 10 l 10 4 l -10 4 l -4 10 l -4 -10 l -10 -4 l 10 -4 z"/>
    <path d="M 340 320 l 4 10 l 10 4 l -10 4 l -4 10 l -4 -10 l -10 -4 l 10 -4 z"/>
  </g>
  <circle cx="256" cy="256" r="118" fill="url(#moon)"/>
  <g fill="#ffc880" opacity="0.5">
    <circle cx="298" cy="222" r="11"/>
    <circle cx="218" cy="282" r="8"/>
    <circle cx="278" cy="298" r="6"/>
  </g>
  <ellipse cx="226" cy="226" rx="28" ry="14" fill="white" opacity="0.35"/>
</svg>
