<svg xmlns="http://www.w3.org/2000/svg" viewBox="0 0 512 512">
  <defs>
    <radialGradient id="bg" cx="50%" cy="40%" r="70%">
      <stop offset="0%" stop-color="#4a3aa8"/>
      <stop offset="55%" stop-color="#1f1a6a"/>
      <stop offset="100%" stop-color="#080826"/>
    </radialGradient>
    <radialGradient id="moon" cx="35%" cy="35%" r="70%">
      <stop offset="0%" stop-color="#fff5d6"/>
      <stop offset="60%" stop-color="#ffe6a8"/>
      <stop offset="100%" stop-color="#ffc880"/>
    </radialGradient>
    <radialGradient id="halo" cx="50%" cy="50%" r="50%">
      <stop offset="0%" stop-color="#ffe6a8" stop-opacity="0.55"/>
      <stop offset="100%" stop-color="#ffe6a8" stop-opacity="0"/>
    </radialGradient>
    <linearGradient id="comet" x1="0%" y1="0%" x2="100%" y2="0%">
      <stop offset="0%" stop-color="#fff5d6" stop-opacity="0"/>
      <stop offset="100%" stop-color="#fff5d6" stop-opacity="0.9"/>
    </linearGradient>
  </defs>
  <rect width="512" height="512" fill="url(#bg)" rx="96"/>

  <g fill="white">
    <circle cx="80"  cy="120" r="2.6" opacity="0.8"/>
    <circle cx="430" cy="100" r="3"   opacity="0.9"/>
    <circle cx="120" cy="380" r="2.4" opacity="0.7"/>
    <circle cx="50"  cy="260" r="2"   opacity="0.6"/>
    <circle cx="450" cy="280" r="2.2" opacity="0.7"/>
    <circle cx="380" cy="430" r="2.6" opacity="0.85"/>
    <circle cx="160" cy="60"  r="1.8" opacity="0.6"/>
    <circle cx="280" cy="450" r="2"   opacity="0.7"/>
  </g>

  <g fill="#ffe6a8">
    <path d="M 100 180 l 5 14 l 14 5 l -14 5 l -5 14 l -5 -14 l -14 -5 l 14 -5 z"/>
    <path d="M 410 360 l 5 14 l 14 5 l -14 5 l -5 14 l -5 -14 l -14 -5 l 14 -5 z" opacity="0.85"/>
    <path d="M 360 70  l 4 11 l 11 4 l -11 4 l -4 11 l -4 -11 l -11 -4 l 11 -4 z" opacity="0.9"/>
  </g>

  <path d="M 60 160 Q 180 130 240 200" stroke="url(#comet)" stroke-width="3" fill="none" stroke-linecap="round" opacity="0.6"/>

  <circle cx="256" cy="256" r="220" fill="url(#halo)"/>

  <circle cx="256" cy="256" r="142" fill="url(#moon)"/>

  <g fill="#ffc880" opacity="0.5">
    <circle cx="316" cy="208" r="13"/>
    <circle cx="200" cy="290" r="9"/>
    <circle cx="288" cy="312" r="7"/>
    <circle cx="220" cy="222" r="6"/>
  </g>

  <ellipse cx="220" cy="216" rx="34" ry="18" fill="white" opacity="0.35"/>
</svg>
