<svg xmlns="http://www.w3.org/2000/svg" viewBox="0 0 512 512">
  <defs>
    <radialGradient id="bg" cx="50%" cy="40%" r="65%">
      <stop offset="0%" stop-color="#3a2a8a"/>
      <stop offset="60%" stop-color="#1a1850"/>
      <stop offset="100%" stop-color="#0a0a3a"/>
    </radialGradient>
    <radialGradient id="moon" cx="35%" cy="35%" r="70%">
      <stop offset="0%" stop-color="#fff5d6"/>
      <stop offset="60%" stop-color="#ffe6a8"/>
      <stop offset="100%" stop-color="#ffc880"/>
    </radialGradient>
    <radialGradient id="glow" cx="50%" cy="50%" r="50%">
      <stop offset="0%" stop-color="#ffe6a8" stop-opacity="0.7"/>
      <stop offset="100%" stop-color="#ffe6a8" stop-opacity="0"/>
    </radialGradient>
  </defs>
  <rect width="512" height="512" fill="url(#bg)" rx="96"/>
  <g fill="white">
    <circle cx="80" cy="100" r="3"/>
    <circle cx="420" cy="110" r="4"/>
    <circle cx="60" cy="400" r="3"/>
    <circle cx="450" cy="420" r="3"/>
    <circle cx="200" cy="70" r="2.5"/>
    <circle cx="380" cy="380" r="2.5"/>
    <circle cx="120" cy="260" r="2"/>
    <circle cx="430" cy="240" r="2"/>
    <circle cx="100" cy="180" r="2"/>
  </g>
  <circle cx="256" cy="256" r="220" fill="url(#glow)"/>
  <circle cx="256" cy="256" r="155" fill="url(#moon)"/>
  <circle cx="320" cy="200" r="14" fill="#ffc880" opacity="0.5"/>
  <circle cx="200" cy="290" r="10" fill="#ffc880" opacity="0.5"/>
  <circle cx="290" cy="310" r="8" fill="#ffc880" opacity="0.4"/>
  <circle cx="218" cy="240" r="11" fill="#3a2a5a"/>
  <circle cx="294" cy="240" r="11" fill="#3a2a5a"/>
  <circle cx="221" cy="237" r="3.5" fill="white"/>
  <circle cx="297" cy="237" r="3.5" fill="white"/>
  <path d="M 210 285 Q 256 320 302 285" stroke="#c75c8c" stroke-width="6" fill="none" stroke-linecap="round"/>
  <circle cx="180" cy="278" r="14" fill="#ffb3d9" opacity="0.55"/>
  <circle cx="332" cy="278" r="14" fill="#ffb3d9" opacity="0.55"/>
  <g fill="#ffe6a8">
    <path d="M 410 90 l 6 18 l 18 6 l -18 6 l -6 18 l -6 -18 l -18 -6 l 18 -6 z"/>
    <path d="M 90 350 l 4 12 l 12 4 l -12 4 l -4 12 l -4 -12 l -12 -4 l 12 -4 z"/>
  </g>
</svg>
